<svg width="766" height="90" viewBox="0 0 766 90" fill="none" xmlns="http://www.w3.org/2000/svg">
<path d="M604.55 20.9459L602.126 36.5114H654.456L653.244 44.2941C652.505 49.0913 648.809 52.6136 644.522 52.6136H599.643L597.218 68.2127H651.648L650.435 75.9955C649.696 80.7926 646.001 84.315 641.714 84.315H577.38C571.851 84.315 567.683 78.6456 568.658 72.5066L579.213 4.9107H661.552L660.34 12.727C659.601 17.5242 655.905 21.0465 651.618 21.0465H604.639L604.55 20.9459Z" fill="#EE2222"/>
<path d="M762.512 4.8111L761.055 14.147C760.447 18.0418 757.092 20.9133 753.15 20.9133H727.536L718.933 75.8959C718.194 80.693 714.498 84.2154 710.211 84.2154H688.835L698.71 20.9133H665.272L667.785 4.8111H762.512Z" fill="#EE2222"/>
<path d="M560.206 40.3454C569.557 30.6563 572.454 4.87419 541.578 4.87419C528.29 4.61429 501.714 4.843 501.714 4.843L469.075 4.81181L459.436 67.5726C458.108 76.2325 464.06 84.1543 471.916 84.1543C491.231 84.1543 524.112 84.1543 539.656 84.1543C570.392 84.1543 568.628 49.7746 560.224 40.3662L560.206 40.3454ZM531.717 68.2172L488.538 68.1548L495.298 23.7014H541.532C543.9 23.7118 545.692 26.1133 545.283 28.7227L545.098 29.887C544.503 33.6296 541.597 36.3638 538.198 36.3638H512.737L510.517 51.1157H536.22C538.941 51.1157 541.003 53.8395 540.566 56.8439L540.065 60.285C539.396 64.8697 535.858 68.2276 531.717 68.2172Z" fill="#EE2222"/>
<path d="M36.7624 27.4202C36.5554 32.6534 42.1432 33.4585 45.6024 33.9617C50.8058 34.7333 56.0684 35.0688 61.3014 35.7732C70.171 36.9809 79.0405 38.2221 87.7031 40.5033C89.7431 41.04 91.7831 41.6439 93.7639 42.3819C101.303 45.0656 106.329 48.6551 108.458 53.9218C111.739 61.7381 108.251 71.4331 101.953 76.3308C99.4404 78.3101 96.3065 79.9203 92.5517 81.2621C87.0231 83.2078 81.7013 84.5497 75.9953 85.1871C69.0179 85.9251 62.0406 86.0257 55.0336 86.0928C42.0545 86.1935 28.3659 87.0992 16.3329 81.5305C12.5781 79.7861 9.03032 77.3037 6.7538 73.4794C4.38859 69.5209 3.76773 64.4554 4.03381 59.6247H28.8389C31.0563 59.6247 32.8894 61.302 33.7467 63.6503C36.112 70.1247 45.0406 70.4267 58.6701 70.4267C60.8579 70.4267 64.1397 70.326 66.3275 69.9905C70.7031 69.4203 79.7796 68.2462 80.2231 61.4362C80.5187 56.4043 75.3448 55.0289 71.8857 54.425C65.7362 53.3516 59.4684 53.2174 53.2301 52.8484C45.898 52.3787 38.6546 51.4394 31.5589 49.6279C28.4546 48.8563 25.4094 47.8835 22.4824 46.5416C15.3572 43.2541 9.3851 36.7125 9.85814 27.2189C10.5086 14.7396 22.6894 9.07031 31.825 6.45369C44.7154 2.73004 57.6649 2.96486 70.7031 2.96486C86.4909 3.56869 97.4595 5.3802 104.466 8.76839C111.266 12.7269 114.578 19.1678 114.075 29.2652H89.27C86.9344 29.2652 85.0422 27.5208 84.0666 25.139C81.3466 18.5639 71.2057 18.3962 56.5119 18.5975C53.7032 18.631 50.8945 18.8323 48.1154 19.2013C43.8284 19.8052 37.0285 21.2812 36.792 27.4202H36.7624Z" fill="black"/>
<path d="M228.047 4.875C233.546 4.875 237.715 10.5108 236.798 16.6498L232.571 44.5268C227.101 80.455 212.792 86.0908 168.266 86.0908C129.566 86.0908 111.206 80.2538 116.616 44.5268L122.648 4.875H144.703C150.202 4.875 154.371 10.4772 153.454 16.6498L149.227 44.5268C146.418 62.8432 142.131 70.3576 170.661 70.3576C199.192 70.3576 197.211 62.7761 199.99 44.5268L206.021 4.875H228.077H228.047Z" fill="black"/>
<path d="M309.824 34.8691C307.843 47.8851 300.215 48.858 281.559 48.858H267.693L271.921 20.9138H285.817C304.472 20.9138 311.804 21.8531 309.824 34.8691ZM283.215 4.81152H245.549L235.29 72.4411C234.344 78.5801 238.542 84.2159 244.041 84.2159H262.312L265.239 64.9602H277.036C322.33 64.9602 334.57 61.5049 338.62 34.8691C342.7 8.23325 328.509 4.81152 283.215 4.81152Z" fill="black"/>
<path d="M398.905 18.6994L370.374 57.1772C367.152 61.5382 369.872 68.2139 374.898 68.2139H401.92L407.449 84.2827H342.938C332.886 84.2827 327.416 70.9312 333.891 62.2091L373.922 8.3336C375.607 6.05245 378.091 4.74414 380.693 4.74414H420.753C424.39 4.74414 427.672 7.29367 429.002 11.1515L454.251 84.2491H421.492L398.875 18.6659L398.905 18.6994Z" fill="black"/>
</svg>
